<?xml version="1.0" encoding="utf-8"?>
<!-- Generator: Adobe Illustrator 24.0.3, SVG Export Plug-In . SVG Version: 6.00 Build 0)  -->
<svg version="1.1" id="Layer_1" xmlns="http://www.w3.org/2000/svg" xmlns:xlink="http://www.w3.org/1999/xlink" x="0px" y="0px"
	 viewBox="0 0 622.19 149.33" style="enable-background:new 0 0 622.19 149.33;" xml:space="preserve">
<style type="text/css">
	.st0{display:none;}
	.st1{fill:#1ED6B7;}
	.st2{display:none;fill:#1ED6B7;}
</style>
<g>
	<g>
		<path d="M213.69,6.77v84.78c0,6.81,0,13.64,0.14,20.53h-17.21c-0.39-2.13-0.73-6.58-0.84-8.66c-3.6,6.46-10.35,10.39-21.77,10.39
			c-18.82,0-30.66-15.16-30.66-38.07c0-22.78,12.64-39.4,33.44-39.4c11.47,0,17.23,4.27,18.99,7.87V6.77H213.69z M161.8,75.25
			c0,15.59,6.59,24.02,17.16,24.02c15.17,0,17.53-12.09,17.53-24.61c0-13.93-2.34-23.78-16.84-23.78
			C168.12,50.88,161.8,59.93,161.8,75.25z"/>
		<path d="M250.92,70.68c5.72-7.36,17.7-20.74,27.85-32.61h20.72L273,66.32l29.18,45.77h-20.44l-20.8-34.29l-10.03,9.7v24.59h-17.9
			V6.77h17.9V70.68z"/>
		<path d="M322.75,90.19c1.74,6.63,6.95,10.43,15.4,10.43c8.68,0,11.94-3.38,11.94-8.62c0-5.48-3.25-7.8-15.04-10.68
			c-23.12-5.68-27.22-12.81-27.22-23.12c0-10.74,7.69-21.88,28.91-21.88c21.32,0,28.99,11.85,29.74,21.98h-17.09
			c-0.79-3.42-3.22-9.09-13.44-9.09c-7.99,0-10.47,3.67-10.47,7.51c0,4.3,2.55,6.4,15.09,9.35c23.94,5.6,27.77,13.74,27.77,24.64
			c0,12.5-9.65,23.09-30.82,23.09c-21.36,0-30.68-10.46-32.39-23.62H322.75z"/>
		<path d="M382.88,56.72c0-6.34,0-13.09-0.14-18.65h17.35c0.39,2,0.63,8.03,0.69,10.35c2.66-5.22,8.67-12.08,22.09-12.08
			c14.53,0,24.59,9.52,24.59,28.48v47.26h-17.9v-45.2c0-9.28-3.31-15.82-13.11-15.82c-10.47,0-15.67,6.79-15.67,20.46v40.56h-17.9
			V56.72z"/>
		<path d="M526.16,93.96c0,6.94,0.58,16.22,1.01,18.12h-17.11c-0.58-1.53-1.01-5.3-1.09-8.06c-2.65,4.42-7.98,9.79-21.5,9.79
			c-17.71,0-25.22-11.61-25.22-23.01c0-16.75,13.35-24.45,35.15-24.45c4.13,0,8.68,0,11.26,0v-5.12c0-5.69-1.96-11.8-12.92-11.8
			c-9.9,0-11.86,4.5-12.94,10h-17.09c1.07-12.16,8.59-23.19,30.68-23.09c19.24,0.1,29.77,7.72,29.77,25.07V93.96z M508.7,77.59
			c-1.93,0-6.43,0-9.57,0c-13.16,0-18.85,3.87-18.85,12.12c0,6.14,3.96,11.02,11.92,11.02c14.64,0,16.51-10.05,16.51-21.05V77.59z"
			/>
		<path d="M563.73,104.66v36.02h-17.8v-84.7c0-6,0-12.04-0.14-17.91h17.35c0.29,2.13,0.59,6.65,0.59,10.03
			c3.46-6.12,10.37-11.76,22.42-11.76c16.79,0,29.51,14.05,29.51,36.86c0,26.22-14.33,40.61-32.26,40.61
			C572.44,113.81,566.72,109.51,563.73,104.66z M597.42,73.9c0-14.28-6.04-22.97-16.77-22.97c-12.88,0-17.66,8.22-17.66,24.17
			c0,15.26,4.2,24.28,16.75,24.28C591.49,99.37,597.42,90.03,597.42,73.9z"/>
	</g>
</g>
<g>
	<g class="st0">
	</g>
</g>
<polygon class="st1" points="73.97,6.76 113.97,6.76 113.97,46.76 103.99,46.76 103.99,16.84 73.97,16.84 "/>
<polygon class="st1" points="49.81,114.89 9.81,114.89 9.81,74.89 19.78,74.89 19.78,104.82 49.81,104.82 "/>
<polygon class="st2" points="119.75,102.91 -79.3,70.05 99.75,122.91 104.74,122.91 104.74,107.94 119.75,107.94 "/>
<polygon class="st1" points="73.97,114.89 113.97,114.89 113.97,74.89 103.99,74.89 103.99,104.82 73.97,104.82 "/>
<polygon class="st1" points="49.81,6.76 9.81,6.76 9.81,46.76 19.78,46.76 19.78,16.84 49.81,16.84 "/>
</svg>
